<mxfile host="app.diagrams.net" modified="2023-01-30T21:31:55.152Z" agent="5.0 (Windows NT 10.0; Win64; x64) AppleWebKit/537.36 (KHTML, like Gecko) Chrome/109.0.0.0 Safari/537.36" etag="_ORPW1neINzC8xBRZoqC" version="20.8.13" type="github">
  <diagram name="Page-1" id="A6u3HOOCVIH-b5IJMXer">
    <mxGraphModel dx="875" dy="458" grid="1" gridSize="10" guides="1" tooltips="1" connect="1" arrows="1" fold="1" page="1" pageScale="1" pageWidth="850" pageHeight="1100" math="0" shadow="0">
      <root>
        <mxCell id="0" />
        <mxCell id="1" parent="0" />
        <mxCell id="e2z4p2HycCxOjX_bOCY3-1" value="Admin&lt;br&gt;" style="shape=umlActor;verticalLabelPosition=bottom;verticalAlign=top;html=1;outlineConnect=0;" vertex="1" parent="1">
          <mxGeometry x="40" y="10" width="30" height="60" as="geometry" />
        </mxCell>
        <mxCell id="e2z4p2HycCxOjX_bOCY3-4" value="LOGIN SUCCESS" style="rounded=0;whiteSpace=wrap;html=1;strokeColor=#001933;fillColor=#808080;" vertex="1" parent="1">
          <mxGeometry x="100" y="40" width="141" height="40" as="geometry" />
        </mxCell>
        <mxCell id="e2z4p2HycCxOjX_bOCY3-5" value="SPECIAL MEDICAL STAFF MANAGEMENT" style="rounded=0;whiteSpace=wrap;html=1;strokeColor=#001933;fillColor=#808080;" vertex="1" parent="1">
          <mxGeometry x="580" y="40" width="140" height="40" as="geometry" />
        </mxCell>
        <mxCell id="e2z4p2HycCxOjX_bOCY3-6" value="PATIENT MANAGEMENT" style="rounded=0;whiteSpace=wrap;html=1;strokeColor=#001933;fillColor=#808080;" vertex="1" parent="1">
          <mxGeometry x="420" y="40" width="140" height="40" as="geometry" />
        </mxCell>
        <mxCell id="e2z4p2HycCxOjX_bOCY3-7" value="HOSPITAL MANAGEMENT" style="rounded=0;whiteSpace=wrap;html=1;strokeColor=#001933;fillColor=#808080;" vertex="1" parent="1">
          <mxGeometry x="260" y="40" width="140" height="40" as="geometry" />
        </mxCell>
        <mxCell id="e2z4p2HycCxOjX_bOCY3-8" value="APPOINTMENT MANAGEMENT" style="rounded=0;whiteSpace=wrap;html=1;strokeColor=#001933;fillColor=#808080;" vertex="1" parent="1">
          <mxGeometry x="900" y="40" width="140" height="40" as="geometry" />
        </mxCell>
        <mxCell id="e2z4p2HycCxOjX_bOCY3-9" value="NURSE MANAGEMENT" style="rounded=0;whiteSpace=wrap;html=1;strokeColor=#001933;fillColor=#808080;" vertex="1" parent="1">
          <mxGeometry x="740" y="40" width="140" height="40" as="geometry" />
        </mxCell>
        <mxCell id="e2z4p2HycCxOjX_bOCY3-57" style="edgeStyle=orthogonalEdgeStyle;rounded=0;orthogonalLoop=1;jettySize=auto;html=1;exitX=0.75;exitY=1;exitDx=0;exitDy=0;entryX=0.75;entryY=0;entryDx=0;entryDy=0;" edge="1" parent="1" source="e2z4p2HycCxOjX_bOCY3-10" target="e2z4p2HycCxOjX_bOCY3-12">
          <mxGeometry relative="1" as="geometry">
            <Array as="points">
              <mxPoint x="70" y="118" />
            </Array>
          </mxGeometry>
        </mxCell>
        <mxCell id="e2z4p2HycCxOjX_bOCY3-10" value="" style="rounded=0;whiteSpace=wrap;html=1;strokeColor=#001933;fillColor=#808080;rotation=-90;" vertex="1" parent="1">
          <mxGeometry x="-217.5" y="357.5" width="545" height="30" as="geometry" />
        </mxCell>
        <mxCell id="e2z4p2HycCxOjX_bOCY3-12" value="" style="rounded=0;whiteSpace=wrap;html=1;strokeColor=#001933;fillColor=#808080;rotation=-90;" vertex="1" parent="1">
          <mxGeometry x="155.5" y="120" width="30" height="10" as="geometry" />
        </mxCell>
        <mxCell id="e2z4p2HycCxOjX_bOCY3-17" value="" style="endArrow=none;dashed=1;html=1;rounded=0;entryX=0.5;entryY=1;entryDx=0;entryDy=0;exitX=1;exitY=0.5;exitDx=0;exitDy=0;" edge="1" parent="1" source="e2z4p2HycCxOjX_bOCY3-12" target="e2z4p2HycCxOjX_bOCY3-4">
          <mxGeometry width="50" height="50" relative="1" as="geometry">
            <mxPoint x="340" y="170" as="sourcePoint" />
            <mxPoint x="390" y="120" as="targetPoint" />
            <Array as="points">
              <mxPoint x="170" y="100" />
            </Array>
          </mxGeometry>
        </mxCell>
        <mxCell id="e2z4p2HycCxOjX_bOCY3-18" value="" style="endArrow=none;dashed=1;html=1;rounded=0;entryX=0;entryY=0.5;entryDx=0;entryDy=0;" edge="1" parent="1" target="e2z4p2HycCxOjX_bOCY3-12">
          <mxGeometry width="50" height="50" relative="1" as="geometry">
            <mxPoint x="171" y="690" as="sourcePoint" />
            <mxPoint x="180.5" y="90" as="targetPoint" />
            <Array as="points">
              <mxPoint x="171" y="190" />
            </Array>
          </mxGeometry>
        </mxCell>
        <mxCell id="e2z4p2HycCxOjX_bOCY3-19" value="" style="rounded=0;whiteSpace=wrap;html=1;strokeColor=#001933;fillColor=#808080;rotation=-90;" vertex="1" parent="1">
          <mxGeometry x="315" y="180" width="30" height="10" as="geometry" />
        </mxCell>
        <mxCell id="e2z4p2HycCxOjX_bOCY3-20" value="" style="endArrow=none;dashed=1;html=1;rounded=0;entryX=0;entryY=0.5;entryDx=0;entryDy=0;" edge="1" parent="1" target="e2z4p2HycCxOjX_bOCY3-19">
          <mxGeometry width="50" height="50" relative="1" as="geometry">
            <mxPoint x="330" y="700" as="sourcePoint" />
            <mxPoint x="335" y="90" as="targetPoint" />
            <Array as="points" />
          </mxGeometry>
        </mxCell>
        <mxCell id="e2z4p2HycCxOjX_bOCY3-23" value="" style="endArrow=none;dashed=1;html=1;rounded=0;entryX=0.5;entryY=1;entryDx=0;entryDy=0;exitX=1;exitY=0.5;exitDx=0;exitDy=0;" edge="1" parent="1" source="e2z4p2HycCxOjX_bOCY3-19" target="e2z4p2HycCxOjX_bOCY3-7">
          <mxGeometry width="50" height="50" relative="1" as="geometry">
            <mxPoint x="340" y="210" as="sourcePoint" />
            <mxPoint x="390" y="160" as="targetPoint" />
          </mxGeometry>
        </mxCell>
        <mxCell id="e2z4p2HycCxOjX_bOCY3-43" value="" style="endArrow=none;dashed=1;html=1;rounded=0;startArrow=none;" edge="1" parent="1" source="e2z4p2HycCxOjX_bOCY3-42">
          <mxGeometry width="50" height="50" relative="1" as="geometry">
            <mxPoint x="489.40999999999997" y="700" as="sourcePoint" />
            <mxPoint x="489.40999999999997" y="180" as="targetPoint" />
            <Array as="points" />
          </mxGeometry>
        </mxCell>
        <mxCell id="e2z4p2HycCxOjX_bOCY3-44" value="" style="endArrow=none;dashed=1;html=1;rounded=0;entryX=0.5;entryY=1;entryDx=0;entryDy=0;exitX=1;exitY=0.5;exitDx=0;exitDy=0;" edge="1" parent="1" source="e2z4p2HycCxOjX_bOCY3-42" target="e2z4p2HycCxOjX_bOCY3-6">
          <mxGeometry width="50" height="50" relative="1" as="geometry">
            <mxPoint x="410" y="280" as="sourcePoint" />
            <mxPoint x="400" y="150" as="targetPoint" />
          </mxGeometry>
        </mxCell>
        <mxCell id="e2z4p2HycCxOjX_bOCY3-46" value="" style="endArrow=none;dashed=1;html=1;rounded=0;" edge="1" parent="1" target="e2z4p2HycCxOjX_bOCY3-42">
          <mxGeometry width="50" height="50" relative="1" as="geometry">
            <mxPoint x="489.40999999999985" y="700" as="sourcePoint" />
            <mxPoint x="489.40999999999985" y="180" as="targetPoint" />
            <Array as="points" />
          </mxGeometry>
        </mxCell>
        <mxCell id="e2z4p2HycCxOjX_bOCY3-42" value="" style="rounded=0;whiteSpace=wrap;html=1;strokeColor=#001933;fillColor=#808080;rotation=-90;" vertex="1" parent="1">
          <mxGeometry x="475" y="260" width="30" height="10" as="geometry" />
        </mxCell>
        <mxCell id="e2z4p2HycCxOjX_bOCY3-47" value="" style="rounded=0;whiteSpace=wrap;html=1;strokeColor=#001933;fillColor=#808080;rotation=-90;" vertex="1" parent="1">
          <mxGeometry x="635" y="330" width="30" height="10" as="geometry" />
        </mxCell>
        <mxCell id="e2z4p2HycCxOjX_bOCY3-48" value="" style="endArrow=none;dashed=1;html=1;rounded=0;entryX=0;entryY=0.5;entryDx=0;entryDy=0;" edge="1" parent="1" target="e2z4p2HycCxOjX_bOCY3-47">
          <mxGeometry width="50" height="50" relative="1" as="geometry">
            <mxPoint x="650" y="690" as="sourcePoint" />
            <mxPoint x="415" y="170" as="targetPoint" />
            <Array as="points" />
          </mxGeometry>
        </mxCell>
        <mxCell id="e2z4p2HycCxOjX_bOCY3-49" value="" style="endArrow=none;dashed=1;html=1;rounded=0;entryX=0.5;entryY=1;entryDx=0;entryDy=0;exitX=1;exitY=0.5;exitDx=0;exitDy=0;" edge="1" parent="1" source="e2z4p2HycCxOjX_bOCY3-47" target="e2z4p2HycCxOjX_bOCY3-5">
          <mxGeometry width="50" height="50" relative="1" as="geometry">
            <mxPoint x="420" y="290" as="sourcePoint" />
            <mxPoint x="410" y="160" as="targetPoint" />
          </mxGeometry>
        </mxCell>
        <mxCell id="e2z4p2HycCxOjX_bOCY3-50" value="" style="rounded=0;whiteSpace=wrap;html=1;strokeColor=#001933;fillColor=#808080;rotation=-90;" vertex="1" parent="1">
          <mxGeometry x="795" y="430" width="30" height="10" as="geometry" />
        </mxCell>
        <mxCell id="e2z4p2HycCxOjX_bOCY3-51" value="" style="endArrow=none;dashed=1;html=1;rounded=0;entryX=0;entryY=0.5;entryDx=0;entryDy=0;" edge="1" parent="1" target="e2z4p2HycCxOjX_bOCY3-50">
          <mxGeometry width="50" height="50" relative="1" as="geometry">
            <mxPoint x="810" y="690" as="sourcePoint" />
            <mxPoint x="425" y="180" as="targetPoint" />
            <Array as="points" />
          </mxGeometry>
        </mxCell>
        <mxCell id="e2z4p2HycCxOjX_bOCY3-52" value="" style="endArrow=none;dashed=1;html=1;rounded=0;exitX=1;exitY=0.5;exitDx=0;exitDy=0;" edge="1" parent="1" source="e2z4p2HycCxOjX_bOCY3-50" target="e2z4p2HycCxOjX_bOCY3-9">
          <mxGeometry width="50" height="50" relative="1" as="geometry">
            <mxPoint x="430" y="300" as="sourcePoint" />
            <mxPoint x="420" y="170" as="targetPoint" />
          </mxGeometry>
        </mxCell>
        <mxCell id="e2z4p2HycCxOjX_bOCY3-54" value="" style="rounded=0;whiteSpace=wrap;html=1;strokeColor=#001933;fillColor=#808080;rotation=-90;" vertex="1" parent="1">
          <mxGeometry x="955" y="580" width="30" height="10" as="geometry" />
        </mxCell>
        <mxCell id="e2z4p2HycCxOjX_bOCY3-55" value="" style="endArrow=none;dashed=1;html=1;rounded=0;entryX=0;entryY=0.5;entryDx=0;entryDy=0;" edge="1" parent="1" target="e2z4p2HycCxOjX_bOCY3-54">
          <mxGeometry width="50" height="50" relative="1" as="geometry">
            <mxPoint x="970" y="690" as="sourcePoint" />
            <mxPoint x="435" y="190" as="targetPoint" />
            <Array as="points" />
          </mxGeometry>
        </mxCell>
        <mxCell id="e2z4p2HycCxOjX_bOCY3-56" value="" style="endArrow=none;dashed=1;html=1;rounded=0;entryX=0.5;entryY=1;entryDx=0;entryDy=0;exitX=1;exitY=0.5;exitDx=0;exitDy=0;" edge="1" parent="1" source="e2z4p2HycCxOjX_bOCY3-54" target="e2z4p2HycCxOjX_bOCY3-8">
          <mxGeometry width="50" height="50" relative="1" as="geometry">
            <mxPoint x="440" y="310" as="sourcePoint" />
            <mxPoint x="430" y="180" as="targetPoint" />
          </mxGeometry>
        </mxCell>
        <mxCell id="e2z4p2HycCxOjX_bOCY3-58" value="" style="endArrow=classic;html=1;rounded=0;entryX=0.25;entryY=0;entryDx=0;entryDy=0;" edge="1" parent="1" target="e2z4p2HycCxOjX_bOCY3-19">
          <mxGeometry width="50" height="50" relative="1" as="geometry">
            <mxPoint x="170" y="190" as="sourcePoint" />
            <mxPoint x="290" y="330" as="targetPoint" />
            <Array as="points">
              <mxPoint x="320" y="190" />
            </Array>
          </mxGeometry>
        </mxCell>
        <mxCell id="e2z4p2HycCxOjX_bOCY3-63" value="" style="html=1;verticalAlign=bottom;endArrow=block;rounded=0;" edge="1" parent="1">
          <mxGeometry x="0.5" y="20" width="80" relative="1" as="geometry">
            <mxPoint x="330" y="100" as="sourcePoint" />
            <mxPoint x="330" y="120" as="targetPoint" />
            <Array as="points">
              <mxPoint x="360" y="100" />
              <mxPoint x="360" y="110" />
              <mxPoint x="360" y="120" />
            </Array>
            <mxPoint as="offset" />
          </mxGeometry>
        </mxCell>
        <mxCell id="e2z4p2HycCxOjX_bOCY3-64" value="" style="html=1;verticalAlign=bottom;endArrow=block;rounded=0;exitX=0.352;exitY=0.924;exitDx=0;exitDy=0;exitPerimeter=0;" edge="1" parent="1" source="e2z4p2HycCxOjX_bOCY3-19">
          <mxGeometry x="0.5" y="20" width="80" relative="1" as="geometry">
            <mxPoint x="340" y="190" as="sourcePoint" />
            <mxPoint x="330" y="210" as="targetPoint" />
            <Array as="points">
              <mxPoint x="370" y="190" />
              <mxPoint x="390" y="190" />
              <mxPoint x="390" y="210" />
            </Array>
            <mxPoint as="offset" />
          </mxGeometry>
        </mxCell>
        <mxCell id="e2z4p2HycCxOjX_bOCY3-67" value="Manage patient details" style="html=1;verticalAlign=bottom;endArrow=block;rounded=0;entryX=0.629;entryY=-0.132;entryDx=0;entryDy=0;entryPerimeter=0;" edge="1" parent="1" target="e2z4p2HycCxOjX_bOCY3-42">
          <mxGeometry width="80" relative="1" as="geometry">
            <mxPoint x="170" y="260" as="sourcePoint" />
            <mxPoint x="390" y="240" as="targetPoint" />
          </mxGeometry>
        </mxCell>
        <mxCell id="e2z4p2HycCxOjX_bOCY3-68" value="" style="html=1;verticalAlign=bottom;endArrow=block;rounded=0;" edge="1" parent="1">
          <mxGeometry x="0.5" y="20" width="80" relative="1" as="geometry">
            <mxPoint x="490" y="150" as="sourcePoint" />
            <mxPoint x="490" y="170" as="targetPoint" />
            <Array as="points">
              <mxPoint x="520" y="150" />
              <mxPoint x="520" y="160" />
              <mxPoint x="520" y="170" />
            </Array>
            <mxPoint as="offset" />
          </mxGeometry>
        </mxCell>
        <mxCell id="e2z4p2HycCxOjX_bOCY3-70" value="" style="html=1;verticalAlign=bottom;endArrow=block;rounded=0;exitX=0.352;exitY=0.924;exitDx=0;exitDy=0;exitPerimeter=0;" edge="1" parent="1">
          <mxGeometry x="0.5" y="20" width="80" relative="1" as="geometry">
            <mxPoint x="494.24" y="270" as="sourcePoint" />
            <mxPoint x="490" y="290.56" as="targetPoint" />
            <Array as="points">
              <mxPoint x="530" y="270.56" />
              <mxPoint x="550" y="270.56" />
              <mxPoint x="550" y="290.56" />
            </Array>
            <mxPoint as="offset" />
          </mxGeometry>
        </mxCell>
        <mxCell id="e2z4p2HycCxOjX_bOCY3-71" value="Manage Doctor details" style="html=1;verticalAlign=bottom;endArrow=block;rounded=0;entryX=0.627;entryY=0.014;entryDx=0;entryDy=0;entryPerimeter=0;" edge="1" parent="1" target="e2z4p2HycCxOjX_bOCY3-47">
          <mxGeometry width="80" relative="1" as="geometry">
            <mxPoint x="168.0952380952381" y="330" as="sourcePoint" />
            <mxPoint x="640" y="330" as="targetPoint" />
          </mxGeometry>
        </mxCell>
        <mxCell id="e2z4p2HycCxOjX_bOCY3-72" value="" style="html=1;verticalAlign=bottom;endArrow=block;rounded=0;" edge="1" parent="1">
          <mxGeometry x="0.5" y="20" width="80" relative="1" as="geometry">
            <mxPoint x="650" y="230" as="sourcePoint" />
            <mxPoint x="650" y="250" as="targetPoint" />
            <Array as="points">
              <mxPoint x="680" y="230" />
              <mxPoint x="680" y="240" />
              <mxPoint x="680" y="250" />
            </Array>
            <mxPoint as="offset" />
          </mxGeometry>
        </mxCell>
        <mxCell id="e2z4p2HycCxOjX_bOCY3-73" value="" style="html=1;verticalAlign=bottom;endArrow=block;rounded=0;" edge="1" parent="1">
          <mxGeometry x="0.5" y="20" width="80" relative="1" as="geometry">
            <mxPoint x="650" y="160" as="sourcePoint" />
            <mxPoint x="650" y="180" as="targetPoint" />
            <Array as="points">
              <mxPoint x="680" y="160" />
              <mxPoint x="680" y="170" />
              <mxPoint x="680" y="180" />
            </Array>
            <mxPoint as="offset" />
          </mxGeometry>
        </mxCell>
        <mxCell id="e2z4p2HycCxOjX_bOCY3-74" value="" style="html=1;verticalAlign=bottom;endArrow=block;rounded=0;" edge="1" parent="1">
          <mxGeometry x="0.5" y="20" width="80" relative="1" as="geometry">
            <mxPoint x="650" y="100" as="sourcePoint" />
            <mxPoint x="650" y="120" as="targetPoint" />
            <Array as="points">
              <mxPoint x="680" y="100" />
              <mxPoint x="680" y="110" />
              <mxPoint x="680" y="120" />
            </Array>
            <mxPoint as="offset" />
          </mxGeometry>
        </mxCell>
        <mxCell id="e2z4p2HycCxOjX_bOCY3-75" value="" style="html=1;verticalAlign=bottom;endArrow=block;rounded=0;" edge="1" parent="1">
          <mxGeometry x="0.5" y="20" width="80" relative="1" as="geometry">
            <mxPoint x="810" y="230" as="sourcePoint" />
            <mxPoint x="810" y="250" as="targetPoint" />
            <Array as="points">
              <mxPoint x="840" y="230" />
              <mxPoint x="840" y="240" />
              <mxPoint x="840" y="250" />
            </Array>
            <mxPoint as="offset" />
          </mxGeometry>
        </mxCell>
        <mxCell id="e2z4p2HycCxOjX_bOCY3-76" value="" style="html=1;verticalAlign=bottom;endArrow=block;rounded=0;" edge="1" parent="1">
          <mxGeometry x="0.5" y="20" width="80" relative="1" as="geometry">
            <mxPoint x="810" y="160" as="sourcePoint" />
            <mxPoint x="810" y="180" as="targetPoint" />
            <Array as="points">
              <mxPoint x="840" y="160" />
              <mxPoint x="840" y="170" />
              <mxPoint x="840" y="180" />
            </Array>
            <mxPoint as="offset" />
          </mxGeometry>
        </mxCell>
        <mxCell id="e2z4p2HycCxOjX_bOCY3-77" value="" style="html=1;verticalAlign=bottom;endArrow=block;rounded=0;" edge="1" parent="1">
          <mxGeometry x="0.5" y="20" width="80" relative="1" as="geometry">
            <mxPoint x="810" y="100" as="sourcePoint" />
            <mxPoint x="810" y="120" as="targetPoint" />
            <Array as="points">
              <mxPoint x="840" y="100" />
              <mxPoint x="840" y="110" />
              <mxPoint x="840" y="120" />
            </Array>
            <mxPoint as="offset" />
          </mxGeometry>
        </mxCell>
        <mxCell id="e2z4p2HycCxOjX_bOCY3-78" value="Manage Nurse details" style="html=1;verticalAlign=bottom;endArrow=block;rounded=0;entryX=0.5;entryY=0;entryDx=0;entryDy=0;" edge="1" parent="1" target="e2z4p2HycCxOjX_bOCY3-50">
          <mxGeometry width="80" relative="1" as="geometry">
            <mxPoint x="170" y="435" as="sourcePoint" />
            <mxPoint x="800" y="430" as="targetPoint" />
          </mxGeometry>
        </mxCell>
        <mxCell id="e2z4p2HycCxOjX_bOCY3-79" value="" style="html=1;verticalAlign=bottom;endArrow=block;rounded=0;" edge="1" parent="1">
          <mxGeometry x="0.5" y="20" width="80" relative="1" as="geometry">
            <mxPoint x="327.5" y="620" as="sourcePoint" />
            <mxPoint x="327.5" y="640" as="targetPoint" />
            <Array as="points">
              <mxPoint x="357.5" y="620" />
              <mxPoint x="357.5" y="630" />
              <mxPoint x="357.5" y="640" />
            </Array>
            <mxPoint as="offset" />
          </mxGeometry>
        </mxCell>
        <mxCell id="e2z4p2HycCxOjX_bOCY3-80" value="Manage appointment details" style="html=1;verticalAlign=bottom;endArrow=block;rounded=0;entryX=0.5;entryY=0;entryDx=0;entryDy=0;" edge="1" parent="1" target="e2z4p2HycCxOjX_bOCY3-54">
          <mxGeometry width="80" relative="1" as="geometry">
            <mxPoint x="170" y="590" as="sourcePoint" />
            <mxPoint x="960" y="585" as="targetPoint" />
          </mxGeometry>
        </mxCell>
        <mxCell id="e2z4p2HycCxOjX_bOCY3-81" value="" style="html=1;verticalAlign=bottom;endArrow=block;rounded=0;" edge="1" parent="1">
          <mxGeometry x="0.5" y="20" width="80" relative="1" as="geometry">
            <mxPoint x="970" y="230" as="sourcePoint" />
            <mxPoint x="970" y="250" as="targetPoint" />
            <Array as="points">
              <mxPoint x="1000" y="230" />
              <mxPoint x="1000" y="240" />
              <mxPoint x="1000" y="250" />
            </Array>
            <mxPoint as="offset" />
          </mxGeometry>
        </mxCell>
        <mxCell id="e2z4p2HycCxOjX_bOCY3-82" value="" style="html=1;verticalAlign=bottom;endArrow=block;rounded=0;" edge="1" parent="1">
          <mxGeometry x="0.5" y="20" width="80" relative="1" as="geometry">
            <mxPoint x="970" y="160" as="sourcePoint" />
            <mxPoint x="970" y="180" as="targetPoint" />
            <Array as="points">
              <mxPoint x="1000" y="160" />
              <mxPoint x="1000" y="170" />
              <mxPoint x="1000" y="180" />
            </Array>
            <mxPoint as="offset" />
          </mxGeometry>
        </mxCell>
        <mxCell id="e2z4p2HycCxOjX_bOCY3-83" value="" style="html=1;verticalAlign=bottom;endArrow=block;rounded=0;" edge="1" parent="1">
          <mxGeometry x="0.5" y="20" width="80" relative="1" as="geometry">
            <mxPoint x="970" y="100" as="sourcePoint" />
            <mxPoint x="970" y="120" as="targetPoint" />
            <Array as="points">
              <mxPoint x="1000" y="100" />
              <mxPoint x="1000" y="110" />
              <mxPoint x="1000" y="120" />
            </Array>
            <mxPoint as="offset" />
          </mxGeometry>
        </mxCell>
        <mxCell id="e2z4p2HycCxOjX_bOCY3-84" value="Login to page&amp;nbsp;" style="text;html=1;strokeColor=none;fillColor=none;align=center;verticalAlign=middle;whiteSpace=wrap;rounded=0;" vertex="1" parent="1">
          <mxGeometry x="80" y="120" width="60" height="30" as="geometry" />
        </mxCell>
        <mxCell id="e2z4p2HycCxOjX_bOCY3-85" value="Manage Hospital" style="text;html=1;strokeColor=none;fillColor=none;align=center;verticalAlign=middle;whiteSpace=wrap;rounded=0;" vertex="1" parent="1">
          <mxGeometry x="185.5" y="160" width="60" height="30" as="geometry" />
        </mxCell>
        <mxCell id="e2z4p2HycCxOjX_bOCY3-86" value="Add/edit new instance" style="text;html=1;strokeColor=none;fillColor=none;align=center;verticalAlign=middle;whiteSpace=wrap;rounded=0;" vertex="1" parent="1">
          <mxGeometry x="360" y="100" width="60" height="30" as="geometry" />
        </mxCell>
        <mxCell id="e2z4p2HycCxOjX_bOCY3-87" value="Save/update system changes" style="text;html=1;strokeColor=none;fillColor=none;align=center;verticalAlign=middle;whiteSpace=wrap;rounded=0;" vertex="1" parent="1">
          <mxGeometry x="395" y="180" width="60" height="30" as="geometry" />
        </mxCell>
        <mxCell id="e2z4p2HycCxOjX_bOCY3-90" value="Add/edit patient info" style="text;html=1;strokeColor=none;fillColor=none;align=center;verticalAlign=middle;whiteSpace=wrap;rounded=0;" vertex="1" parent="1">
          <mxGeometry x="530" y="100" width="60" height="30" as="geometry" />
        </mxCell>
        <mxCell id="e2z4p2HycCxOjX_bOCY3-91" value="" style="html=1;verticalAlign=bottom;endArrow=block;rounded=0;" edge="1" parent="1">
          <mxGeometry x="0.5" y="20" width="80" relative="1" as="geometry">
            <mxPoint x="490" y="115" as="sourcePoint" />
            <mxPoint x="490" y="135" as="targetPoint" />
            <Array as="points">
              <mxPoint x="520" y="115" />
              <mxPoint x="520" y="125" />
              <mxPoint x="520" y="135" />
            </Array>
            <mxPoint as="offset" />
          </mxGeometry>
        </mxCell>
        <mxCell id="e2z4p2HycCxOjX_bOCY3-92" value="Save/update changes into patient database" style="text;html=1;strokeColor=none;fillColor=none;align=center;verticalAlign=middle;whiteSpace=wrap;rounded=0;" vertex="1" parent="1">
          <mxGeometry x="530" y="150" width="60" height="30" as="geometry" />
        </mxCell>
        <mxCell id="e2z4p2HycCxOjX_bOCY3-93" value="List/Delete Patient" style="text;html=1;strokeColor=none;fillColor=none;align=center;verticalAlign=middle;whiteSpace=wrap;rounded=0;" vertex="1" parent="1">
          <mxGeometry x="560" y="260" width="60" height="30" as="geometry" />
        </mxCell>
        <mxCell id="e2z4p2HycCxOjX_bOCY3-94" value="Add/edit doctor to specific case" style="text;html=1;strokeColor=none;fillColor=none;align=center;verticalAlign=middle;whiteSpace=wrap;rounded=0;" vertex="1" parent="1">
          <mxGeometry x="690" y="100" width="60" height="30" as="geometry" />
        </mxCell>
        <mxCell id="e2z4p2HycCxOjX_bOCY3-95" value="Save and update doctor&#39;s log files in case" style="text;html=1;strokeColor=none;fillColor=none;align=center;verticalAlign=middle;whiteSpace=wrap;rounded=0;" vertex="1" parent="1">
          <mxGeometry x="690" y="160" width="60" height="30" as="geometry" />
        </mxCell>
        <mxCell id="e2z4p2HycCxOjX_bOCY3-96" value="Unlist/unassign a doctor from a dead patient case" style="text;html=1;strokeColor=none;fillColor=none;align=center;verticalAlign=middle;whiteSpace=wrap;rounded=0;" vertex="1" parent="1">
          <mxGeometry x="690" y="230" width="60" height="30" as="geometry" />
        </mxCell>
        <mxCell id="e2z4p2HycCxOjX_bOCY3-97" value="Add/edit nurse to specific case" style="text;html=1;strokeColor=none;fillColor=none;align=center;verticalAlign=middle;whiteSpace=wrap;rounded=0;" vertex="1" parent="1">
          <mxGeometry x="850" y="90" width="60" height="40" as="geometry" />
        </mxCell>
        <mxCell id="e2z4p2HycCxOjX_bOCY3-98" value="Save and Update nurse to specific case" style="text;html=1;strokeColor=none;fillColor=none;align=center;verticalAlign=middle;whiteSpace=wrap;rounded=0;" vertex="1" parent="1">
          <mxGeometry x="850" y="155" width="60" height="40" as="geometry" />
        </mxCell>
        <mxCell id="e2z4p2HycCxOjX_bOCY3-99" value="Unassign from case" style="text;html=1;strokeColor=none;fillColor=none;align=center;verticalAlign=middle;whiteSpace=wrap;rounded=0;" vertex="1" parent="1">
          <mxGeometry x="860" y="240" width="60" height="30" as="geometry" />
        </mxCell>
        <mxCell id="e2z4p2HycCxOjX_bOCY3-100" value="Add apointment" style="text;html=1;strokeColor=none;fillColor=none;align=center;verticalAlign=middle;whiteSpace=wrap;rounded=0;" vertex="1" parent="1">
          <mxGeometry x="1010" y="90" width="60" height="30" as="geometry" />
        </mxCell>
        <mxCell id="e2z4p2HycCxOjX_bOCY3-101" value="Update info on appointment" style="text;html=1;strokeColor=none;fillColor=none;align=center;verticalAlign=middle;whiteSpace=wrap;rounded=0;" vertex="1" parent="1">
          <mxGeometry x="1010" y="150" width="60" height="30" as="geometry" />
        </mxCell>
        <mxCell id="e2z4p2HycCxOjX_bOCY3-102" value="List/ delete appointment" style="text;html=1;strokeColor=none;fillColor=none;align=center;verticalAlign=middle;whiteSpace=wrap;rounded=0;" vertex="1" parent="1">
          <mxGeometry x="1010" y="230" width="60" height="30" as="geometry" />
        </mxCell>
        <mxCell id="e2z4p2HycCxOjX_bOCY3-103" value="List/Delete from hospital database" style="text;html=1;strokeColor=none;fillColor=none;align=center;verticalAlign=middle;whiteSpace=wrap;rounded=0;" vertex="1" parent="1">
          <mxGeometry x="359.999979654948" y="610" width="60" height="30" as="geometry" />
        </mxCell>
      </root>
    </mxGraphModel>
  </diagram>
</mxfile>
